<svg xmlns="http://www.w3.org/2000/svg" viewBox="0 0 50 105"><style type="text/css">  
	.st0{fill:#000000;}
</style>
<path class="st0" d="M22.9 12.6l17.9 31c1.9 3.2 3 5.1 3.3 6.7.4 2.5-.2 5-1.9 6.9-.6.8-1.4 1.4-2.3 1.9-.9.5-1.8.8-2.8 1-2.5.4-5-.2-6.9-1.9-1.2-1-2.3-3-4.2-6.2L8.1 21c-1.9-3.2-3-5.1-3.3-6.7-.4-2.5.2-5 1.9-6.9C7.3 6.6 8.1 6 9 5.5c.9-.5 1.8-.8 2.8-1 2.5-.4 5 .2 6.9 1.9 1.3 1.1 2.4 3 4.2 6.2z" />
<path class="st0" d="M8.2 83.2l17.9-31c1.9-3.2 3-5.1 4.2-6.2 1.9-1.6 4.5-2.3 6.9-1.9 1 .2 1.9.5 2.8 1 .9.5 1.6 1.1 2.3 1.9 1.6 1.9 2.3 4.5 1.9 6.9-.3 1.5-1.4 3.5-3.3 6.7L23 91.6c-1.9 3.2-3 5.1-4.2 6.2-1.9 1.6-4.5 2.3-6.9 1.9-1-.2-1.9-.5-2.8-1-.9-.5-1.6-1.1-2.3-1.9-1.6-1.9-2.3-4.5-1.9-6.9.3-1.6 1.4-3.5 3.3-6.7z" />
</svg>